<svg width="50" height="38" viewBox="0 0 50 38" fill="none" xmlns="http://www.w3.org/2000/svg">
<path d="M28.4431 0C27.3362 0 26.2508 0.0859601 25.1929 0.24847C28.3648 0.735313 31.2664 1.64338 33.7483 3.35658C38.763 3.61041 44.1747 5.89449 44.1747 11.6756C44.1747 14.0729 43.4088 16.9614 42.1724 18.9356C42.1432 18.9827 42.1116 19.0277 42.0821 19.0743C42.0829 19.1507 42.0876 19.2261 42.0876 19.3029C42.0876 28.5964 34.6688 35.7094 25.1929 37.1641C26.2508 37.3267 27.3362 37.4125 28.4431 37.4125C39.465 37.4125 50.0002 29.0527 50.0002 18.7217C50.0002 8.39035 39.465 0 28.4431 0Z" fill="#B9B9B7"/>
<path d="M27.4517 8.32685C26.6268 4.50537 22.351 3.99023 18.7298 3.99023H15.9692H2.17188C1.42089 3.99023 0.723355 4.37873 0.3279 5.01715C-0.565944 6.46184 0.472974 8.32685 2.17188 8.32685H15.9044C17.9881 8.32685 20.3193 8.32685 20.1781 11.2178C19.9662 15.7659 13.6085 18.1282 10.5004 18.8335L12.0591 14.4802C12.745 12.5645 11.325 10.5478 9.29044 10.5478C8.04626 10.5478 6.93683 11.3307 6.51966 12.5026L2.33484 24.2601C1.64909 26.1868 3.07773 28.2117 5.12291 28.2117C6.37695 28.2117 7.49502 27.4211 7.91281 26.239L9.33471 22.218C11.4768 21.7957 14.6888 20.9994 17.8246 19.7327C21.0173 18.4427 24.1307 16.6644 25.955 14.2948C26.9772 12.9671 27.5952 11.454 27.5952 9.73698C27.5952 9.22199 27.5439 8.75458 27.4517 8.32685Z" fill="#263577"/>
<path d="M32.9192 3.99882C32.8573 3.9982 32.7951 3.99606 32.7332 3.99606L24.8744 3.93274L24.8025 3.93213C24.7209 3.9488 24.6582 4.0174 24.6582 4.10374C24.6582 4.17402 24.6996 4.23314 24.7586 4.2625C24.785 4.269 24.8113 4.27558 24.8373 4.28254C26.7496 4.78988 28.2049 5.92125 28.7255 8.33268H30.0488C33.899 8.33268 36.2652 9.56668 36.2652 13.727C36.2652 15.3138 35.5943 16.8649 34.8877 18.2399C32.8392 22.2945 27.8236 25.4677 23.2674 25.4677L26.821 15.4645L26.8313 15.4354C26.8387 15.4126 26.8457 15.389 26.8457 15.3637C26.8457 15.2338 26.7405 15.1284 26.6107 15.1284C26.5518 15.1284 26.4997 15.1521 26.4582 15.1878C26.4501 15.1964 26.4416 15.2051 26.4332 15.2136C24.6507 17.0532 22.0921 18.6789 19.4459 19.78C19.2253 19.8719 19.0528 20.0512 18.973 20.2768L17.0816 25.4366C16.6015 26.7937 17.6081 28.2177 19.0475 28.2177H21.7841C29.1122 28.2177 36.9955 25.1932 41.049 18.8368C41.0786 18.7903 41.1102 18.7453 41.1396 18.6983C42.3757 16.7239 43.3293 14.4322 43.3293 12.0347C43.3293 6.25377 37.9194 4.05181 32.9192 3.99882Z" fill="#263577"/>
<path d="M2.38357 34.4404C2.33039 34.3659 2.30645 34.2702 2.31176 34.1532C2.31706 34.0362 2.38622 33.9351 2.51923 33.85C2.60433 33.7968 2.69474 33.7742 2.79049 33.7822C2.88624 33.7902 2.97931 33.8394 3.0697 33.9298C3.22398 34.084 3.38621 34.2037 3.55639 34.2889C3.72658 34.374 3.93933 34.4165 4.19466 34.4165C4.27445 34.4111 4.36221 34.3992 4.45796 34.3806C4.55371 34.3619 4.63747 34.3194 4.70926 34.2529C4.78109 34.1864 4.81701 34.0841 4.81701 33.9458C4.81701 33.8287 4.77712 33.7356 4.69733 33.6665C4.61754 33.5974 4.51249 33.5389 4.38217 33.491C4.25186 33.4431 4.10691 33.3979 3.94733 33.3553C3.78245 33.3074 3.61357 33.2543 3.44069 33.1958C3.26785 33.1373 3.10962 33.0615 2.966 32.9684C2.82238 32.8753 2.70537 32.7517 2.61498 32.5974C2.52454 32.4431 2.47931 32.249 2.47931 32.015C2.47931 31.749 2.55378 31.523 2.7027 31.3368C2.85162 31.1506 3.04444 31.007 3.28116 30.906C3.51782 30.8049 3.76647 30.7544 4.0271 30.7544C4.19198 30.7544 4.36484 30.7743 4.54568 30.8142C4.72657 30.8541 4.89945 30.918 5.06433 31.0057C5.22921 31.0935 5.36751 31.2092 5.47921 31.3527C5.53769 31.4325 5.57226 31.5283 5.58291 31.64C5.59357 31.7517 5.54304 31.8528 5.43134 31.9432C5.35155 32.007 5.25845 32.0349 5.15205 32.0269C5.0457 32.019 4.95793 31.9831 4.88875 31.9193C4.79835 31.8022 4.67737 31.7091 4.52579 31.64C4.37417 31.5708 4.19996 31.5363 4.00316 31.5363C3.92337 31.5363 3.83696 31.5456 3.74391 31.5642C3.65081 31.5828 3.5697 31.6227 3.50057 31.6839C3.43138 31.7451 3.39679 31.8421 3.39679 31.9751C3.39679 32.0974 3.43668 32.1945 3.51647 32.2663C3.59626 32.3381 3.70399 32.3966 3.83966 32.4418C3.97527 32.487 4.12019 32.5309 4.27442 32.5734C4.434 32.616 4.59623 32.6666 4.76111 32.7251C4.92599 32.7836 5.07759 32.8607 5.21591 32.9564C5.35418 33.0522 5.46588 33.1758 5.55102 33.3274C5.63611 33.479 5.67866 33.6719 5.67866 33.9059C5.67866 34.1771 5.59887 34.4085 5.43929 34.6C5.27971 34.7915 5.08027 34.9364 4.84095 35.0348C4.60158 35.1332 4.35691 35.1824 4.10694 35.1824C3.79308 35.1824 3.47925 35.1279 3.16545 35.0188C2.85165 34.9098 2.59102 34.717 2.38357 34.4404Z" fill="#263579"/>
<path d="M10.1747 32.9724C10.1747 33.4085 10.0776 33.7928 9.88345 34.1253C9.68936 34.4577 9.42875 34.717 9.10164 34.9032C8.77448 35.0893 8.4088 35.1824 8.00461 35.1824C7.60036 35.1824 7.23468 35.0893 6.90757 34.9032C6.58046 34.717 6.31983 34.4577 6.12569 34.1253C5.93154 33.7928 5.83447 33.4085 5.83447 32.9724C5.83447 32.5362 5.93154 32.152 6.12569 31.8195C6.31983 31.4871 6.58046 31.2265 6.90757 31.0377C7.23468 30.8488 7.60036 30.7544 8.00461 30.7544C8.4088 30.7544 8.77448 30.8488 9.10164 31.0377C9.42875 31.2265 9.68936 31.4871 9.88345 31.8195C10.0776 32.152 10.1747 32.5362 10.1747 32.9724ZM9.21727 32.9724C9.21727 32.7011 9.16277 32.4658 9.05377 32.2663C8.94472 32.0669 8.79845 31.9113 8.61496 31.7996C8.43142 31.6879 8.22797 31.632 8.00461 31.632C7.7812 31.632 7.57775 31.6879 7.39426 31.7996C7.21072 31.9113 7.06445 32.0669 6.95545 32.2663C6.84639 32.4658 6.79186 32.7011 6.79186 32.9724C6.79186 33.2383 6.84639 33.471 6.95545 33.6705C7.06445 33.87 7.21072 34.0256 7.39426 34.1372C7.57775 34.2489 7.7812 34.3048 8.00461 34.3048C8.22797 34.3048 8.43142 34.2489 8.61496 34.1372C8.79845 34.0256 8.94472 33.87 9.05377 33.6705C9.16277 33.471 9.21727 33.2383 9.21727 32.9724Z" fill="#263579"/>
<path d="M11.6112 34.6158C11.6112 34.7541 11.5647 34.8698 11.4716 34.9629C11.3786 35.056 11.2628 35.1025 11.1245 35.1025C10.9916 35.1025 10.8799 35.056 10.7895 34.9629C10.699 34.8698 10.6538 34.7541 10.6538 34.6158V29.6852C10.6538 29.5469 10.7004 29.4312 10.7935 29.3381C10.8866 29.245 11.0022 29.1985 11.1405 29.1985C11.2788 29.1985 11.3919 29.245 11.4796 29.3381C11.5673 29.4312 11.6112 29.5469 11.6112 29.6852V34.6158Z" fill="#263579"/>
<path d="M15.4564 30.8342C15.5947 30.8342 15.7091 30.8808 15.7995 30.9739C15.8899 31.067 15.9352 31.1826 15.9352 31.3209V33.3474C15.9352 33.9113 15.7783 34.3581 15.4645 34.6878C15.1506 35.0176 14.6985 35.1825 14.1081 35.1825C13.5177 35.1825 13.0669 35.0176 12.7558 34.6878C12.4446 34.3581 12.2891 33.9113 12.2891 33.3474V31.3209C12.2891 31.1826 12.3343 31.067 12.4247 30.9739C12.5151 30.8808 12.6295 30.8342 12.7677 30.8342C12.906 30.8342 13.0204 30.8808 13.1108 30.9739C13.2012 31.067 13.2465 31.1826 13.2465 31.3209V33.3474C13.2465 33.6719 13.3183 33.9126 13.4619 34.0695C13.6055 34.2264 13.8209 34.3048 14.1081 34.3048C14.4006 34.3048 14.6187 34.2264 14.7623 34.0695C14.906 33.9126 14.9778 33.6719 14.9778 33.3474V31.3209C14.9778 31.1826 15.023 31.067 15.1134 30.9739C15.2038 30.8808 15.3182 30.8342 15.4564 30.8342Z" fill="#263579"/>
<path d="M18.4323 30.7544C18.7355 30.7544 19.0001 30.7863 19.2262 30.8501C19.4522 30.914 19.6277 31.0031 19.7527 31.1174C19.8777 31.2318 19.9402 31.3687 19.9402 31.5283C19.9402 31.6347 19.9083 31.7344 19.8445 31.8275C19.7807 31.9206 19.6876 31.9671 19.5652 31.9671C19.4801 31.9671 19.4097 31.9552 19.3538 31.9312C19.298 31.9073 19.2488 31.8767 19.2062 31.8394C19.1637 31.8022 19.1131 31.7676 19.0547 31.7357C19.0014 31.7038 18.9203 31.6785 18.8113 31.6599C18.7023 31.6413 18.6212 31.632 18.568 31.632C18.2967 31.632 18.0666 31.6905 17.8778 31.8075C17.689 31.9245 17.5441 32.0828 17.443 32.2823C17.3419 32.4817 17.2914 32.7118 17.2914 32.9724C17.2914 33.2277 17.3433 33.4551 17.447 33.6546C17.5507 33.854 17.6943 34.0122 17.8778 34.1293C18.0613 34.2463 18.2728 34.3048 18.5121 34.3048C18.6451 34.3048 18.7594 34.2968 18.8551 34.2808C18.9509 34.2649 19.0307 34.2409 19.0945 34.209C19.169 34.1665 19.2355 34.1213 19.294 34.0734C19.3525 34.0256 19.4402 34.0016 19.5573 34.0016C19.6956 34.0016 19.802 34.0455 19.8764 34.1332C19.9509 34.221 19.9881 34.3287 19.9881 34.4563C19.9881 34.5894 19.9137 34.7104 19.7647 34.8194C19.6158 34.9284 19.4203 35.0162 19.1783 35.0827C18.9363 35.1492 18.6744 35.1824 18.3925 35.1824C17.9723 35.1824 17.6079 35.0853 17.2994 34.8912C16.9909 34.697 16.7529 34.4324 16.5854 34.0974C16.4178 33.7622 16.334 33.3873 16.334 32.9724C16.334 32.5362 16.4231 32.152 16.6013 31.8195C16.7795 31.4871 17.0268 31.2265 17.3433 31.0377C17.6598 30.8488 18.0228 30.7544 18.4323 30.7544ZM17.9855 36.3074C17.9324 36.3074 17.8646 36.2927 17.7821 36.2635C17.6996 36.2342 17.6265 36.1917 17.5627 36.1358C17.4989 36.08 17.467 36.0148 17.467 35.9403C17.467 35.8606 17.4989 35.7808 17.5627 35.701L18.185 34.8633H18.7514L18.3126 36.0521C18.2488 36.2223 18.1398 36.3074 17.9855 36.3074Z" fill="#263579"/>
<path d="M24.3842 32.9724C24.3842 33.4085 24.2871 33.7928 24.093 34.1253C23.8989 34.4577 23.6382 34.717 23.3111 34.9032C22.984 35.0893 22.6183 35.1824 22.2141 35.1824C21.8098 35.1824 21.4442 35.0893 21.117 34.9032C20.7899 34.717 20.5293 34.4577 20.3352 34.1253C20.141 33.7928 20.0439 33.4085 20.0439 32.9724C20.0439 32.5362 20.141 32.1519 20.3352 31.8195C20.5293 31.4871 20.7899 31.2264 21.117 31.0376C21.4442 30.8488 21.8098 30.7544 22.2141 30.7544C22.6183 30.7544 22.984 30.8488 23.3111 31.0376C23.6382 31.2264 23.8989 31.4871 24.093 31.8195C24.2871 32.1519 24.3842 32.5362 24.3842 32.9724ZM23.4268 32.9724C23.4268 32.7011 23.3723 32.4657 23.2633 32.2663C23.1542 32.0668 23.0079 31.9113 22.8244 31.7996C22.6409 31.6879 22.4374 31.632 22.2141 31.632C21.9907 31.632 21.7872 31.6879 21.6037 31.7996C21.4202 31.9113 21.2739 32.0668 21.1649 32.2663C21.0559 32.4657 21.0013 32.7011 21.0013 32.9724C21.0013 33.2383 21.0559 33.471 21.1649 33.6704C21.2739 33.8699 21.4202 34.0255 21.6037 34.1372C21.7872 34.2489 21.9907 34.3047 22.2141 34.3047C22.4374 34.3047 22.6409 34.2489 22.8244 34.1372C23.0079 34.0255 23.1542 33.8699 23.2633 33.6704C23.3723 33.471 23.4268 33.2383 23.4268 32.9724ZM21.145 30.3953C21.028 30.3953 20.9256 30.3475 20.8378 30.2518C20.75 30.156 20.7061 30.023 20.7061 29.8528C20.7061 29.6826 20.7859 29.5231 20.9455 29.3741C21.1051 29.2252 21.3524 29.1508 21.6875 29.1508C21.8258 29.1508 21.9508 29.1773 22.0625 29.2305C22.1742 29.2837 22.2765 29.3435 22.3696 29.41C22.4627 29.4765 22.5505 29.5363 22.6329 29.5895C22.7154 29.6427 22.7912 29.6693 22.8603 29.6693C22.9188 29.6693 22.9641 29.6547 22.996 29.6254C23.0279 29.5962 23.0359 29.555 23.0199 29.5018C22.9826 29.3794 22.9959 29.2837 23.0598 29.2145C23.1236 29.1454 23.2034 29.1108 23.2991 29.1108C23.4215 29.1108 23.5252 29.1574 23.6103 29.2505C23.6954 29.3435 23.7379 29.4725 23.7379 29.6374C23.7379 29.7278 23.7087 29.8289 23.6501 29.9406C23.5917 30.0523 23.4959 30.1494 23.363 30.2318C23.23 30.3143 23.0518 30.3555 22.8284 30.3555C22.7167 30.3555 22.6037 30.3289 22.4893 30.2757C22.375 30.2225 22.2619 30.1626 22.1502 30.0961C22.0385 30.0297 21.9348 29.9698 21.8391 29.9167C21.7434 29.8635 21.6583 29.8369 21.5838 29.8369C21.5306 29.8369 21.4867 29.8515 21.4522 29.8807C21.4175 29.91 21.4082 29.9512 21.4242 30.0044C21.4614 30.1214 21.4482 30.2159 21.3843 30.2876C21.3205 30.3594 21.2407 30.3953 21.145 30.3953Z" fill="#263579"/>
<path d="M26.7539 35.1824C26.3019 35.1824 25.9096 35.088 25.5771 34.8991C25.2447 34.7103 24.9894 34.4537 24.8112 34.1293C24.633 33.8048 24.5439 33.4378 24.5439 33.0282C24.5439 32.5496 24.641 32.1413 24.8352 31.8036C25.0293 31.4658 25.2833 31.2065 25.5971 31.0257C25.9109 30.8448 26.2433 30.7544 26.5944 30.7544C26.8657 30.7544 27.1223 30.8103 27.3643 30.922C27.6063 31.0337 27.8204 31.1866 28.0066 31.3807C28.1927 31.5749 28.3403 31.7996 28.4494 32.0549C28.5584 32.3102 28.6129 32.5814 28.6129 32.8686C28.6076 32.9963 28.5571 33.1 28.4613 33.1798C28.3656 33.2596 28.2539 33.2995 28.1263 33.2995H25.0785L24.8391 32.5016H27.7672L27.5917 32.6612V32.4458C27.5811 32.2916 27.5265 32.1533 27.4281 32.0309C27.3297 31.9086 27.2074 31.8115 27.0611 31.7397C26.9149 31.6679 26.7593 31.632 26.5944 31.632C26.4348 31.632 26.2859 31.6533 26.1476 31.6958C26.0093 31.7384 25.8896 31.8102 25.7886 31.9112C25.6875 32.0123 25.6077 32.1479 25.5492 32.3182C25.4907 32.4883 25.4615 32.7038 25.4615 32.9644C25.4615 33.2516 25.5213 33.495 25.641 33.6944C25.7606 33.8939 25.9149 34.0455 26.1037 34.1492C26.2925 34.2529 26.4933 34.3048 26.7061 34.3048C26.9029 34.3048 27.0598 34.2888 27.1768 34.2569C27.2938 34.225 27.3882 34.1864 27.46 34.1412C27.5319 34.096 27.597 34.0575 27.6555 34.0256C27.7512 33.9777 27.8417 33.9537 27.9268 33.9537C28.0438 33.9537 28.1409 33.9936 28.218 34.0734C28.2951 34.1532 28.3337 34.2463 28.3337 34.3526C28.3337 34.4963 28.2592 34.6266 28.1103 34.7436C27.972 34.8606 27.7778 34.963 27.5279 35.0508C27.2779 35.1385 27.0199 35.1824 26.7539 35.1824Z" fill="#263579"/>
<path d="M28.7683 34.4404C28.7152 34.3659 28.6912 34.2702 28.6965 34.1532C28.7018 34.0362 28.771 33.9351 28.904 33.85C28.9891 33.7968 29.0795 33.7742 29.1753 33.7822C29.271 33.7902 29.3641 33.8394 29.4545 33.9298C29.6087 34.084 29.771 34.2037 29.9412 34.2889C30.1113 34.374 30.3241 34.4165 30.5794 34.4165C30.6592 34.4111 30.747 34.3992 30.8427 34.3806C30.9385 34.3619 31.0222 34.3194 31.094 34.2529C31.1659 34.1864 31.2018 34.0841 31.2018 33.9458C31.2018 33.8287 31.1619 33.7356 31.0821 33.6665C31.0023 33.5974 30.8973 33.5389 30.7669 33.491C30.6366 33.4431 30.4917 33.3979 30.3321 33.3553C30.1672 33.3074 29.9983 33.2543 29.8255 33.1958C29.6526 33.1373 29.4944 33.0615 29.3508 32.9684C29.2071 32.8753 29.0901 32.7517 28.9997 32.5974C28.9093 32.4431 28.8641 32.249 28.8641 32.015C28.8641 31.749 28.9385 31.523 29.0875 31.3368C29.2364 31.1506 29.4292 31.007 29.6659 30.906C29.9026 30.8049 30.1512 30.7544 30.4119 30.7544C30.5767 30.7544 30.7496 30.7743 30.9305 30.8142C31.1114 30.8541 31.2842 30.918 31.4491 31.0057C31.614 31.0935 31.7523 31.2092 31.864 31.3527C31.9225 31.4325 31.957 31.5283 31.9677 31.64C31.9783 31.7517 31.9278 31.8528 31.8161 31.9432C31.7363 32.007 31.6432 32.0349 31.5368 32.0269C31.4305 32.019 31.3427 31.9831 31.2736 31.9193C31.1831 31.8022 31.0621 31.7091 30.9106 31.64C30.7589 31.5708 30.5847 31.5363 30.3879 31.5363C30.3081 31.5363 30.2217 31.5456 30.1287 31.5642C30.0356 31.5828 29.9545 31.6227 29.8853 31.6839C29.8162 31.7451 29.7816 31.8421 29.7816 31.9751C29.7816 32.0974 29.8215 32.1945 29.9012 32.2663C29.981 32.3381 30.0888 32.3966 30.2244 32.4418C30.36 32.487 30.505 32.5309 30.6592 32.5734C30.8188 32.616 30.981 32.6666 31.1459 32.7251C31.3108 32.7836 31.4624 32.8607 31.6007 32.9564C31.7389 33.0522 31.8506 33.1758 31.9358 33.3274C32.0209 33.479 32.0634 33.6719 32.0634 33.9059C32.0634 34.1771 31.9836 34.4085 31.8241 34.6C31.6645 34.7915 31.465 34.9364 31.2257 35.0348C30.9863 35.1332 30.7417 35.1824 30.4917 35.1824C30.1779 35.1824 29.864 35.1279 29.5502 35.0188C29.2364 34.9098 28.9758 34.717 28.7683 34.4404Z" fill="#263579"/>
</svg>
